<?xml version="1.0" encoding="UTF-8" standalone="no"?>
<svg width="74px" height="75px" viewBox="0 0 74 75" version="1.1" xmlns="http://www.w3.org/2000/svg" xmlns:xlink="http://www.w3.org/1999/xlink" xmlns:sketch="http://www.bohemiancoding.com/sketch/ns">
    <!-- Generator: Sketch 3.0.3 (7892) - http://www.bohemiancoding.com/sketch -->
    <title>::icon-play</title>
    <desc>Created with Sketch.</desc>
    <defs></defs>
    <g id="Home-Dash" stroke="none" stroke-width="1" fill="none" fill-rule="evenodd" sketch:type="MSPage">
        <g id="::icon-play" sketch:type="MSArtboardGroup" fill="#EB393A">
            <g id="::icon-play-3" sketch:type="MSLayerGroup" transform="translate(1.000000, 1.000000)">
                <g id="::icon-rollover" sketch:type="MSShapeGroup">
                    <path d="M36,72 C16.117875,72 0,55.88325 0,36 C0,16.117875 16.117875,0 36,0 C55.882125,0 72,16.117875 72,36 C72,55.88325 55.882125,72 36,72 L36,72 Z M36,6.75 C19.846125,6.75 6.75,19.846125 6.75,36 C6.75,52.155 19.846125,65.25 36,65.25 C52.155,65.25 65.25,52.155 65.25,36 C65.25,19.846125 52.155,6.75 36,6.75 L36,6.75 Z M43.4622912,42.8157429 C39.3278608,45.2542036 31.059,50.131125 31.059,50.131125 C30.91725,50.1885 30.783375,50.2605 30.645,50.3235 C30.495375,50.391 30.35475,50.44275 30.21075,50.4855 C30.1185,50.511375 30.056625,50.52825 29.9925,50.54175 C29.889,50.565375 29.817,50.57775 29.745,50.589 C29.649375,50.601375 29.588625,50.608125 29.527875,50.612625 C29.397375,50.621625 29.32425,50.625 29.25,50.625 C27.385875,50.625 25.875,49.114125 25.875,47.25 L25.875,24.75 C25.875,22.885875 27.385875,21.375 29.25,21.375 C29.9565,21.375 30.61125,21.592125 31.1535,21.963375 L48.9285,33.07275 C49.942125,33.654375 50.625,34.74675 50.625,36 C50.625,37.240875 49.9252507,38.3242499 48.9285007,38.9103749 C48.9285007,38.9103749 45.6694858,41.5139536 43.4622912,42.8157429 Z" id="play-btn-2"></path>
                </g>
            </g>
        </g>
    </g>
</svg>