<?xml version="1.0" encoding="UTF-8" standalone="no"?>
<svg width="36px" height="35px" viewBox="0 0 36 35" version="1.1" xmlns="http://www.w3.org/2000/svg" xmlns:xlink="http://www.w3.org/1999/xlink" xmlns:sketch="http://www.bohemiancoding.com/sketch/ns">
    <!-- Generator: Sketch 3.0.3 (7892) - http://www.bohemiancoding.com/sketch -->
    <title>::icon-add-red</title>
    <desc>Created with Sketch.</desc>
    <defs></defs>
    <g id="Home-Dash" stroke="none" stroke-width="1" fill="none" fill-rule="evenodd" sketch:type="MSPage">
        <g id="::icon-add-red" sketch:type="MSArtboardGroup" fill="#EB393A">
            <g id="add-icon-3" sketch:type="MSLayerGroup" transform="translate(2.000000, 2.000000)">
                <g id="::rollover-2" sketch:type="MSShapeGroup">
                    <path d="M15.7538462,31.5076923 C7.05329231,31.5076923 0,24.4544 0,15.7538462 C0,7.05329231 7.05329231,0 15.7538462,0 C24.4544,0 31.5076923,7.05329231 31.5076923,15.7538462 C31.5076923,24.4544 24.4544,31.5076923 15.7538462,31.5076923 L15.7538462,31.5076923 Z M15.7538462,2.95384615 C8.6848,2.95384615 2.95384615,8.6848 2.95384615,15.7538462 C2.95384615,22.8233846 8.6848,28.5538462 15.7538462,28.5538462 C22.8233846,28.5538462 28.5538462,22.8233846 28.5538462,15.7538462 C28.5538462,8.6848 22.8233846,2.95384615 15.7538462,2.95384615 L15.7538462,2.95384615 Z M17.2307692,17.2307692 L17.2307692,22.1538462 C17.2307692,22.9696 16.5696,23.6307692 15.7538462,23.6307692 C14.9380923,23.6307692 14.2769231,22.9696 14.2769231,22.1538462 L14.2769231,17.2307692 L9.35384615,17.2307692 C8.53809231,17.2307692 7.87692308,16.5696 7.87692308,15.7538462 C7.87692308,14.9380923 8.53809231,14.2769231 9.35384615,14.2769231 L14.2769231,14.2769231 L14.2769231,9.35384615 C14.2769231,8.53809231 14.9380923,7.87692308 15.7538462,7.87692308 C16.5696,7.87692308 17.2307692,8.53809231 17.2307692,9.35384615 L17.2307692,14.2769231 L22.1538462,14.2769231 C22.9696,14.2769231 23.6307692,14.9380923 23.6307692,15.7538462 C23.6307692,16.5696 22.9696,17.2307692 22.1538462,17.2307692 L17.2307692,17.2307692 Z" id="add"></path>
                </g>
            </g>
        </g>
    </g>
</svg>